<svg xmlns="http://www.w3.org/2000/svg" version="1.1" xmlns:xlink="http://www.w3.org/1999/xlink" xmlns:svgjs="http://svgjs.dev/svgjs" width="1000" height="1000" viewBox="0 0 1000 1000"><rect width="1000" height="1000" fill="#000000"></rect><g transform="matrix(0.7,0,0,0.7,149.57575757575756,384.8873666983534)"><svg viewBox="0 0 396 131" data-background-color="#f8f8f8" preserveAspectRatio="xMidYMid meet" height="330" width="1000" xmlns="http://www.w3.org/2000/svg" xmlns:xlink="http://www.w3.org/1999/xlink"><g id="tight-bounds" transform="matrix(1,0,0,1,0.2400000000000091,-0.2196754869450217)"><svg viewBox="0 0 395.52 131.43912113358152" height="131.43912113358152" width="395.52"><g><svg viewBox="0 0 677.8820179787668 225.27360607652665" height="131.43912113358152" width="395.52"><g transform="matrix(1,0,0,1,282.36201797876686,27.54513405806155)"><svg viewBox="0 0 395.52 170.18333796040355" height="170.18333796040355" width="395.52"><g><svg viewBox="0 0 395.52 170.18333796040355" height="170.18333796040355" width="395.52"><g><svg viewBox="0 0 395.52 120.9110877476749" height="120.9110877476749" width="395.52"><g transform="matrix(1,0,0,1,0,0)"><svg width="395.52" viewBox="0.8 -37.1 123.64 37.800000000000004" height="120.9110877476749" data-palette-color="#111111"><path d="M1.5-2.2Q2.75-2.4 3.28-2.88 3.8-3.35 3.93-4.15 4.05-4.95 4.05-6.75L4.05-6.75 4.05-30.65Q4.05-33.3 2.4-33.35L2.4-33.35 2.15-33.35Q1.65-33.35 1.3-33.3 0.95-33.25 0.8-33.25L0.8-33.25 0.85-34.05 1-35.6Q3.45-35.9 6.15-36.43 8.85-36.95 9.65-37.1L9.65-37.1 9.95-36.3Q9.4-35.45 8.95-26.1 8.5-16.75 8.5-5.05L8.5-5.05Q8.5-3.65 8.88-3.08 9.25-2.5 10.15-2.5L10.15-2.5Q10.6-2.5 11.08-2.55 11.55-2.6 11.7-2.6L11.7-2.6 11.85-2.35 11.35 0.2Q10.85 0.15 9.43 0.08 8 0 6.4 0L6.4 0Q5 0 3.35 0.13 1.7 0.25 1.2 0.3L1.2 0.3 1.5-2.2ZM9.55-11.7L9.65-12.65 15.1-18Q15.75-18.6 15.98-18.95 16.2-19.3 16.2-19.7L16.2-19.7Q16.2-20.25 15.58-20.5 14.95-20.75 13.55-20.75L13.55-20.75 13.4-21 13.85-22.9Q14.4-22.9 15.98-22.85 17.55-22.8 19.3-22.8L19.3-22.8Q20.6-22.8 22.23-22.93 23.85-23.05 24.35-23.1L24.35-23.1 24.5-22.85 24.05-20.7Q22.15-20.05 20.2-18.48 18.25-16.9 15.65-14.3L15.65-14.3Q14.2-12.85 14.2-12.85L14.2-12.85 19-6.2Q20.5-4.15 21.83-3.25 23.15-2.35 24.65-2.25L24.65-2.25 24.8-1.95 24.5-0.05Q24.05 0.05 22.73 0.35 21.4 0.65 20.8 0.7L20.8 0.7Q19.85 0.7 18.85 0.3L18.85 0.3Q17.9-0.05 17.05-0.9 16.2-1.75 15.05-3.5L15.05-3.5 9.55-11.7ZM43.25 0.6Q38.95 0.6 38.55-3.35L38.55-3.35 38.25-3.45Q36.5-1.7 35.02-0.65 33.55 0.4 32.75 0.4L32.75 0.4Q29.9 0.4 28.02-1.5 26.15-3.4 26.15-6.25L26.15-6.25Q26.15-7.8 26.9-8.9 27.65-10 28.9-10.35L28.9-10.35 38.45-12.8 38.5-14.55Q38.5-16.9 37.35-18.2 36.2-19.5 34.15-19.5L34.15-19.5Q32.8-19.5 31.25-18.85 29.7-18.2 28.2-17.05L28.2-17.05 27.9-17.25 27.15-19.75Q29.5-21.15 32.07-22.28 34.65-23.4 35.8-23.4L35.8-23.4Q39.45-23.4 41.4-21.63 43.35-19.85 43.35-16.8L43.35-16.8Q43.35-16.2 42.95-12.3L42.95-12.3Q42.4-7 42.4-5.85L42.4-5.85Q42.4-4.85 42.9-4.25 43.4-3.65 44.35-3.65L44.35-3.65Q45.05-3.65 45.82-4 46.6-4.35 47.05-4.75L47.05-4.75 47.8-3.8Q47-2.4 45.75-1.1 44.5 0.2 43.25 0.6L43.25 0.6ZM34.05-3.6Q34.9-3.6 36.05-4.17 37.2-4.75 38.15-5.6L38.15-5.6 38.35-10.5 32.25-8.75Q30.9-8.3 30.9-6.85L30.9-6.85Q30.9-5.45 31.77-4.53 32.65-3.6 34.05-3.6L34.05-3.6ZM50.05 0.25L50.35-2.2Q53.2-2.55 53.2-5.1L53.2-5.1 53.2-17.8Q53.15-19 52.5-19.38 51.85-19.75 50-19.85L50-19.85 49.8-20.15 50.15-22.2 53.2-22.75 53.2-23.05Q53.2-27.35 54.67-30.53 56.15-33.7 58.85-35.4 61.55-37.1 65.15-37.1L65.15-37.1Q66.65-37.1 67.92-36.88 69.2-36.65 69.95-36.43 70.7-36.2 70.9-36.1L70.9-36.1 71.05-35.5Q70.9-35.2 70.4-34.13 69.9-33.05 69.4-31.75L69.4-31.75 68.8-31.6Q68.59-31.75 67.87-32.2 67.15-32.65 65.92-33.05 64.7-33.45 63.3-33.45L63.3-33.45Q60.55-33.45 59.27-31.4 58-29.35 57.9-24.85L57.9-24.85 57.9-22.45Q60.45-22.45 62.22-22.5 64-22.55 64.55-22.6L64.55-22.6 64.75-22.45 64.25-19.45Q63.75-19.5 62.05-19.55 60.35-19.6 57.85-19.6L57.85-19.6 57.65-5.2Q57.65-3.9 58.22-3.28 58.8-2.65 60-2.65L60-2.65Q61.15-2.65 61.97-2.7 62.8-2.75 63.05-2.75L63.05-2.75 63.15-2.55 62.75 0.15Q62 0.15 60 0.08 58 0 56.1 0L56.1 0Q54.35 0 52.47 0.1 50.6 0.2 50.05 0.25L50.05 0.25ZM66.79 0.25L67.09-2.2Q69.94-2.55 69.94-5.1L69.94-5.1 69.94-17.8Q69.89-19 69.24-19.38 68.59-19.75 66.74-19.85L66.74-19.85 66.54-20.15 66.89-22.2 69.94-22.75 69.94-23.05Q69.94-27.35 71.42-30.53 72.89-33.7 75.59-35.4 78.29-37.1 81.89-37.1L81.89-37.1Q83.39-37.1 84.67-36.88 85.94-36.65 86.69-36.43 87.44-36.2 87.64-36.1L87.64-36.1 87.79-35.5Q87.64-35.2 87.14-34.13 86.64-33.05 86.14-31.75L86.14-31.75 85.54-31.6Q85.34-31.75 84.62-32.2 83.89-32.65 82.67-33.05 81.44-33.45 80.04-33.45L80.04-33.45Q77.29-33.45 76.02-31.4 74.74-29.35 74.64-24.85L74.64-24.85 74.64-22.45Q77.19-22.45 78.97-22.5 80.74-22.55 81.29-22.6L81.29-22.6 81.49-22.45 80.99-19.45Q80.49-19.5 78.79-19.55 77.09-19.6 74.59-19.6L74.59-19.6 74.39-5.2Q74.39-3.9 74.97-3.28 75.54-2.65 76.74-2.65L76.74-2.65Q77.89-2.65 78.72-2.7 79.54-2.75 79.79-2.75L79.79-2.75 79.89-2.55 79.49 0.15Q78.74 0.15 76.74 0.08 74.74 0 72.84 0L72.84 0Q71.09 0 69.22 0.1 67.34 0.2 66.79 0.25L66.79 0.25ZM93.34 0.6Q88.34 0.6 85.39-2.48 82.44-5.55 82.44-10.65L82.44-10.65Q82.44-14.1 83.97-17.03 85.49-19.95 88.11-21.68 90.74-23.4 93.84-23.4L93.84-23.4Q97.74-23.4 99.74-21.43 101.74-19.45 101.74-15.6L101.74-15.6Q101.74-14.05 101.44-12.95L101.44-12.95 100.79-12.4 87.39-12.4Q87.39-8.1 89.22-5.8 91.04-3.5 94.39-3.5L94.39-3.5Q97.19-3.5 100.39-5L100.39-5 100.69-4.85 101.39-2.95Q99.59-1.6 97.29-0.5 94.99 0.6 93.34 0.6L93.34 0.6ZM87.49-14.65L95.54-15.05Q96.19-15.1 96.42-15.35 96.64-15.6 96.64-16.3L96.64-16.3Q96.64-18.2 95.69-19.23 94.74-20.25 92.94-20.25L92.94-20.25Q90.79-20.25 89.31-18.78 87.84-17.3 87.49-14.65L87.49-14.65ZM116.04 0.6Q111.04 0.6 108.09-2.48 105.14-5.55 105.14-10.65L105.14-10.65Q105.14-14.1 106.66-17.03 108.19-19.95 110.81-21.68 113.44-23.4 116.54-23.4L116.54-23.4Q120.44-23.4 122.44-21.43 124.44-19.45 124.44-15.6L124.44-15.6Q124.44-14.05 124.14-12.95L124.14-12.95 123.49-12.4 110.09-12.4Q110.09-8.1 111.91-5.8 113.74-3.5 117.09-3.5L117.09-3.5Q119.89-3.5 123.09-5L123.09-5 123.39-4.85 124.09-2.95Q122.29-1.6 119.99-0.5 117.69 0.6 116.04 0.6L116.04 0.6ZM110.19-14.65L118.24-15.05Q118.89-15.1 119.11-15.35 119.34-15.6 119.34-16.3L119.34-16.3Q119.34-18.2 118.39-19.23 117.44-20.25 115.64-20.25L115.64-20.25Q113.49-20.25 112.01-18.78 110.54-17.3 110.19-14.65L110.19-14.65Z" opacity="1" transform="matrix(1,0,0,1,0,0)" fill="#ffffff" class="undefined-text-0" data-fill-palette-color="primary" id="text-0"></path></svg></g></svg></g><g transform="matrix(1,0,0,1,75.54432,149.455293698795)"><svg viewBox="0 0 244.43135999999998 20.728044261608567" height="20.728044261608567" width="244.43135999999998"><g transform="matrix(1,0,0,1,0,0)"><svg width="244.43135999999998" viewBox="5.18 -33.88 405.90999999999997 34.43" height="20.728044261608567" data-palette-color="#111111"><path d="M8.13 0L5.18 0 5.18-30.88 14.6-30.88Q19.63-30.88 22.2-28.3 24.78-25.73 24.78-21.5L24.78-21.5Q24.78-17.32 22.2-14.79 19.63-12.25 14.6-12.25L14.6-12.25 8.13-12.25 8.13 0ZM8.13-28.4L8.13-14.78 14.6-14.78Q18.13-14.78 19.96-16.56 21.8-18.35 21.8-21.5L21.8-21.5Q21.8-24.7 19.96-26.55 18.13-28.4 14.6-28.4L14.6-28.4 8.13-28.4ZM35.15 0L32.25 0 32.25-23.75 35.15-23.75 35.15 0ZM35.15-10.88L34.07-10.88Q34.07-15.33 34.85-18.28 35.62-21.23 37.25-22.7 38.87-24.18 41.4-24.18L41.4-24.18Q42.27-24.18 43.01-24.05 43.75-23.93 44.5-23.65L44.5-23.65 44.17-20.83Q43.45-21.1 42.57-21.29 41.7-21.48 41.05-21.48L41.05-21.48Q38.82-21.48 37.53-20.13 36.25-18.78 35.7-16.39 35.15-14 35.15-10.88L35.15-10.88ZM57.47 0.55L57.47 0.55Q54.37 0.55 52.01-1.04 49.65-2.63 48.3-5.41 46.95-8.2 46.95-11.78L46.95-11.78Q46.95-15.68 48.28-18.48 49.62-21.28 51.98-22.78 54.34-24.28 57.47-24.28L57.47-24.28Q60.09-24.28 61.93-23.21 63.77-22.15 64.9-20.33 66.02-18.5 66.48-16.2 66.95-13.9 66.84-11.45L66.84-11.45 49.32-11.45 49.32-13.45 65.07-13.45 63.92-12.7Q64-14.33 63.73-15.94 63.47-17.55 62.76-18.9 62.05-20.25 60.77-21.08 59.5-21.9 57.5-21.9L57.5-21.9Q54.95-21.9 53.25-20.59 51.55-19.28 50.71-17.19 49.87-15.1 49.87-12.73L49.87-12.73 49.87-11.5Q49.87-8.78 50.71-6.6 51.55-4.42 53.23-3.15 54.92-1.88 57.47-1.88L57.47-1.88Q60.09-1.88 61.76-3.16 63.42-4.45 63.75-6.95L63.75-6.95 66.84-6.95Q66.47-4.58 65.18-2.9 63.9-1.23 61.92-0.34 59.95 0.55 57.47 0.55ZM111.59 0L108.72 0 108.72-13.98Q108.72-17.75 106.92-19.75 105.12-21.75 101.99-21.75L101.99-21.75Q98.44-21.75 96.62-19.06 94.79-16.38 94.79-11.9L94.79-11.9 93.32-11.9Q93.32-14.83 93.92-17.14 94.52-19.45 95.69-21.04 96.87-22.63 98.61-23.45 100.34-24.28 102.62-24.28L102.62-24.28Q105.37-24.28 107.38-23.05 109.39-21.83 110.49-19.51 111.59-17.2 111.59-13.98L111.59-13.98 111.59 0ZM77.69 0L74.79 0 74.79-23.73 77.24-23.73 77.59-18.6Q78.67-21.28 80.74-22.78 82.82-24.28 85.82-24.28L85.82-24.28Q88.57-24.28 90.58-23.05 92.59-21.83 93.69-19.51 94.79-17.2 94.79-13.98L94.79-13.98 94.79 0 91.97 0 91.97-13.98Q91.97-17.75 90.16-19.75 88.34-21.75 85.17-21.75L85.17-21.75Q82.84-21.75 81.16-20.48 79.47-19.2 78.58-16.9 77.69-14.6 77.69-11.53L77.69-11.53 77.69 0ZM122.79-29.98L122.79-29.98Q121.87-29.98 121.29-30.55 120.72-31.13 120.72-32L120.72-32Q120.72-32.85 121.29-33.36 121.87-33.88 122.79-33.88L122.79-33.88Q123.77-33.88 124.31-33.36 124.87-32.85 124.87-32L124.87-32Q124.87-31.13 124.31-30.55 123.77-29.98 122.79-29.98ZM124.24 0L121.34 0 121.34-23.75 124.24-23.75 124.24 0ZM151.66 0L151.66-23.75 154.56-23.75 154.56 0 151.66 0ZM134.56-8.7L134.56-23.75 137.46-23.75 137.46-8.85Q137.46-5.55 139.08-3.81 140.69-2.08 143.74-2.08L143.74-2.08Q146.24-2.08 148.01-3.43 149.79-4.78 150.73-7.05 151.66-9.33 151.66-12.08L151.66-12.08 153.04-12.08Q153.04-8.28 151.86-5.45 150.69-2.63 148.54-1.09 146.39 0.45 143.44 0.45L143.44 0.45Q140.69 0.45 138.7-0.58 136.71-1.6 135.64-3.64 134.56-5.68 134.56-8.7L134.56-8.7ZM201.91 0L199.04 0 199.04-13.98Q199.04-17.75 197.24-19.75 195.44-21.75 192.31-21.75L192.31-21.75Q188.76-21.75 186.94-19.06 185.11-16.38 185.11-11.9L185.11-11.9 183.64-11.9Q183.64-14.83 184.24-17.14 184.84-19.45 186.01-21.04 187.19-22.63 188.92-23.45 190.66-24.28 192.94-24.28L192.94-24.28Q195.69-24.28 197.7-23.05 199.71-21.83 200.81-19.51 201.91-17.2 201.91-13.98L201.91-13.98 201.91 0ZM168.01 0L165.11 0 165.11-23.73 167.56-23.73 167.91-18.6Q168.99-21.28 171.06-22.78 173.14-24.28 176.14-24.28L176.14-24.28Q178.89-24.28 180.9-23.05 182.91-21.83 184.01-19.51 185.11-17.2 185.11-13.98L185.11-13.98 185.11 0 182.29 0 182.29-13.98Q182.29-17.75 180.47-19.75 178.66-21.75 175.49-21.75L175.49-21.75Q173.16-21.75 171.47-20.48 169.79-19.2 168.9-16.9 168.01-14.6 168.01-11.53L168.01-11.53 168.01 0ZM225.91 0L223.01 0 223.01-30.88 233.43-30.88Q238.58-30.88 241.17-28.39 243.76-25.9 243.76-21.9L243.76-21.9Q243.76-17.93 241.17-15.44 238.58-12.95 233.43-12.95L233.43-12.95 225.91-12.95 225.91 0ZM244.36 0L240.63 0 231.43-13.78 234.66-13.78 244.36 0ZM225.91-28.4L225.91-15.1 233.28-15.1Q236.96-15.1 238.87-16.96 240.78-18.82 240.78-21.8L240.78-21.8Q240.78-24.85 238.89-26.63 237.01-28.4 233.43-28.4L233.43-28.4 225.91-28.4ZM261.05 0.55L261.05 0.55Q257.88 0.55 255.45-0.88 253.03-2.3 251.64-5.08 250.25-7.85 250.25-11.88L250.25-11.88Q250.25-15.9 251.64-18.66 253.03-21.43 255.45-22.85 257.88-24.28 261.05-24.28L261.05-24.28Q264.23-24.28 266.65-22.85 269.08-21.43 270.45-18.66 271.83-15.9 271.83-11.88L271.83-11.88Q271.83-7.85 270.45-5.08 269.08-2.3 266.65-0.88 264.23 0.55 261.05 0.55ZM261-1.98L261-1.98Q263.63-1.98 265.38-3.21 267.13-4.45 267.99-6.68 268.85-8.9 268.85-11.88L268.85-11.88Q268.85-16.35 266.94-19.07 265.03-21.8 261.1-21.8L261.1-21.8Q258.48-21.8 256.74-20.56 255-19.33 254.14-17.09 253.28-14.85 253.28-11.88L253.28-11.88Q253.28-7.43 255.19-4.7 257.1-1.98 261-1.98ZM296.68 0L294.15 0 293.78-4.93 293.78-15.43Q293.78-19 292.23-20.5 290.68-22 287.8-22L287.8-22Q286.2-22 284.82-21.54 283.45-21.08 282.63-20.06 281.8-19.05 281.8-17.4L281.8-17.4 278.5-17.4Q278.5-19.93 279.75-21.44 281-22.95 283.11-23.61 285.23-24.28 287.8-24.28L287.8-24.28Q290.35-24.28 292.35-23.39 294.35-22.5 295.51-20.54 296.68-18.57 296.68-15.38L296.68-15.38 296.68 0ZM285.9 0.55L285.9 0.55Q283.05 0.55 281.2-0.49 279.35-1.53 278.45-3.15 277.55-4.78 277.55-6.5L277.55-6.5Q277.55-9 278.76-10.5 279.98-12 282.01-12.68 284.05-13.35 286.48-13.35L286.48-13.35Q288.3-13.35 290.26-12.94 292.23-12.53 294.03-11.8L294.03-11.8 294.03-9.85Q292.48-10.53 290.45-10.93 288.43-11.33 286.78-11.33L286.78-11.33Q284.23-11.33 282.43-10.23 280.63-9.13 280.63-6.5L280.63-6.5Q280.63-4.53 281.96-3.15 283.3-1.78 286.28-1.78L286.28-1.78Q288.3-1.78 290-2.75 291.7-3.73 292.74-5.18 293.78-6.63 293.78-8.1L293.78-8.1 294.5-8.1Q294.5-5.83 293.44-3.85 292.38-1.88 290.44-0.66 288.5 0.55 285.9 0.55ZM314.7 0.55L314.7 0.55Q311.25 0.55 309.01-0.45 306.77-1.45 305.65-3.15 304.52-4.85 304.42-6.95L304.42-6.95 307.32-6.95Q307.47-4.42 309.36-3.14 311.25-1.85 314.52-1.85L314.52-1.85Q316.22-1.85 317.67-2.41 319.12-2.98 320.01-3.96 320.9-4.95 320.9-6.2L320.9-6.2Q320.9-7.8 319.72-8.7 318.55-9.6 316-10.25L316-10.25 311.67-11.55Q308.55-12.45 306.9-14.11 305.25-15.78 305.25-18.1L305.25-18.1Q305.25-20.9 307.67-22.59 310.1-24.28 314-24.28L314-24.28Q318.25-24.28 320.62-22.6 323-20.93 323.12-18.43L323.12-18.43 320.12-18.43Q319.85-20.2 318.3-21.06 316.75-21.93 314-21.93L314-21.93Q311.27-21.93 309.77-20.68 308.27-19.43 308.27-17.95L308.27-17.95Q308.27-15.1 313.17-13.78L313.17-13.78 317.42-12.45Q320.62-11.55 322.31-10.05 324-8.55 324-6.2L324-6.2Q324-4.48 322.88-2.93 321.77-1.38 319.7-0.41 317.62 0.55 314.7 0.55ZM339.47 0.55L339.47 0.55Q337.62 0.55 336.18-0.18 334.75-0.9 333.93-2.33 333.12-3.75 333.12-5.85L333.12-5.85 333.12-30.48 335.94-30.48 335.94-5.9Q335.94-1.85 339.69-1.85L339.69-1.85Q340.8-1.85 341.8-2.1 342.8-2.35 344.05-2.8L344.05-2.8 344.44-0.68Q343.22-0.13 342 0.21 340.77 0.55 339.47 0.55ZM343.97-21.63L329.05-21.63 329.05-23.73 343.97-23.73 343.97-21.63ZM358.79 0.55L358.79 0.55Q355.69 0.55 353.33-1.04 350.97-2.63 349.62-5.41 348.27-8.2 348.27-11.78L348.27-11.78Q348.27-15.68 349.61-18.48 350.94-21.28 353.31-22.78 355.67-24.28 358.79-24.28L358.79-24.28Q361.42-24.28 363.25-23.21 365.09-22.15 366.22-20.33 367.34-18.5 367.81-16.2 368.27-13.9 368.17-11.45L368.17-11.45 350.64-11.45 350.64-13.45 366.39-13.45 365.24-12.7Q365.32-14.33 365.06-15.94 364.79-17.55 364.08-18.9 363.37-20.25 362.09-21.08 360.82-21.9 358.82-21.9L358.82-21.9Q356.27-21.9 354.57-20.59 352.87-19.28 352.03-17.19 351.19-15.1 351.19-12.73L351.19-12.73 351.19-11.5Q351.19-8.78 352.03-6.6 352.87-4.42 354.56-3.15 356.24-1.88 358.79-1.88L358.79-1.88Q361.42-1.88 363.08-3.16 364.74-4.45 365.07-6.95L365.07-6.95 368.17-6.95Q367.79-4.58 366.5-2.9 365.22-1.23 363.24-0.34 361.27 0.55 358.79 0.55ZM379.01 0L376.12 0 376.12-23.75 379.01-23.75 379.01 0ZM379.01-10.88L377.94-10.88Q377.94-15.33 378.72-18.28 379.49-21.23 381.12-22.7 382.74-24.18 385.26-24.18L385.26-24.18Q386.14-24.18 386.88-24.05 387.62-23.93 388.37-23.65L388.37-23.65 388.04-20.83Q387.31-21.1 386.44-21.29 385.56-21.48 384.92-21.48L384.92-21.48Q382.69-21.48 381.4-20.13 380.12-18.78 379.56-16.39 379.01-14 379.01-10.88L379.01-10.88ZM401.79 0.55L401.79 0.55Q398.34 0.55 396.1-0.45 393.86-1.45 392.74-3.15 391.61-4.85 391.51-6.95L391.51-6.95 394.41-6.95Q394.56-4.42 396.45-3.14 398.34-1.85 401.61-1.85L401.61-1.85Q403.31-1.85 404.76-2.41 406.21-2.98 407.1-3.96 407.99-4.95 407.99-6.2L407.99-6.2Q407.99-7.8 406.81-8.7 405.64-9.6 403.09-10.25L403.09-10.25 398.76-11.55Q395.64-12.45 393.99-14.11 392.34-15.78 392.34-18.1L392.34-18.1Q392.34-20.9 394.76-22.59 397.19-24.28 401.09-24.28L401.09-24.28Q405.34-24.28 407.71-22.6 410.09-20.93 410.21-18.43L410.21-18.43 407.21-18.43Q406.94-20.2 405.39-21.06 403.84-21.93 401.09-21.93L401.09-21.93Q398.36-21.93 396.86-20.68 395.36-19.43 395.36-17.95L395.36-17.95Q395.36-15.1 400.26-13.78L400.26-13.78 404.51-12.45Q407.71-11.55 409.4-10.05 411.09-8.55 411.09-6.2L411.09-6.2Q411.09-4.48 409.98-2.93 408.86-1.38 406.79-0.41 404.71 0.55 401.79 0.55Z" opacity="1" transform="matrix(1,0,0,1,0,0)" fill="#ffffff" class="undefined-text-1" data-fill-palette-color="secondary" id="text-1"></path></svg></g></svg></g></svg></g></svg></g><g><svg viewBox="0 0 225.27360607652665 225.27360607652665" height="225.27360607652665" width="225.27360607652665"><g><svg></svg></g><g id="icon-0"><svg viewBox="0 0 225.27360607652665 225.27360607652665" height="225.27360607652665" width="225.27360607652665"><g><path d="M0 112.637c0-62.208 50.429-112.637 112.637-112.637 62.208 0 112.637 50.429 112.637 112.637 0 62.208-50.429 112.637-112.637 112.637-62.208 0-112.637-50.429-112.637-112.637zM112.637 214.37c56.186 0 101.733-45.547 101.733-101.733 0-56.186-45.547-101.733-101.733-101.733-56.186 0-101.733 45.547-101.733 101.733 0 56.186 45.547 101.733 101.733 101.733z" data-fill-palette-color="accent" fill="#ffffff" stroke="transparent"></path></g><g transform="matrix(1,0,0,1,79.51134384664056,49.34272161626609)"><svg viewBox="0 0 66.25091838324552 126.58816284399447" height="126.58816284399447" width="66.25091838324552"><g><svg xmlns="http://www.w3.org/2000/svg" xmlns:xlink="http://www.w3.org/1999/xlink" version="1.1" x="0" y="0" viewBox="0.4710000000000001 0.45285637183170796 99.201 189.5471436281683" enable-background="new 0 0 100 190.153" xml:space="preserve" width="66.25091838324552" height="126.58816284399447" class="icon-wb-0" data-fill-palette-color="accent" id="wb-0"><g fill="#f61b53" data-fill-palette-color="accent"><polygon fill="#ffffff" points="86.282,190.153 16.625,190.153 9.417,87.497 93.484,87.497  " data-fill-palette-color="accent"></polygon><g fill="#f61b53" data-fill-palette-color="accent"><path fill="#ffffff" d="M99.672 80.529c0 1.391-1.275 2.529-2.835 2.529H3.305c-1.559 0-2.834-1.025-2.834-2.279s1.217-2.66 2.705-3.126l4.59-1.436c1.488-0.466 2.705-2.122 2.705-3.681v-2.018c0-1.559 1.275-2.834 2.834-2.834h73.532c1.56 0 2.835 1.275 2.835 2.834v2.018c0 1.559 1.233 3.159 2.741 3.555l4.518 1.188C98.438 77.676 99.672 79.139 99.672 80.529z" data-fill-palette-color="accent"></path></g></g><g fill="#f61b53" data-fill-palette-color="accent"><g fill="#f61b53" data-fill-palette-color="accent"><path fill="#ffffff" d="M22.271 1.46c-5.315 6.353-9.067 15.971-5.484 24.001 3.123 7 11.552 10.077 10.042 18.829-0.713 4.136-3.417 6.776-5.027 10.389-1.561 3.502 3.608 6.557 5.181 3.028 1.346-3.02 3.511-5.597 4.751-8.759 2.017-5.14 1.634-10.656-0.916-15.5-1.525-2.899-4.317-4.827-6.53-7.134-2.699-2.813-3.277-6.867-2.611-10.547 0.636-3.52 2.777-7.603 4.836-10.065C28.978 2.756 24.757-1.512 22.271 1.46L22.271 1.46z" data-fill-palette-color="accent"></path></g></g><g fill="#f61b53" data-fill-palette-color="accent"><g fill="#f61b53" data-fill-palette-color="accent"><path fill="#ffffff" d="M45.399 1.46c-5.314 6.353-9.066 15.971-5.484 24.001 3.122 7 11.55 10.077 10.041 18.829-0.713 4.136-3.417 6.776-5.026 10.389-1.56 3.502 3.609 6.557 5.181 3.028 1.346-3.02 3.51-5.598 4.75-8.759 2.016-5.14 1.634-10.656-0.915-15.5-1.525-2.899-4.316-4.827-6.529-7.134-2.699-2.813-3.276-6.867-2.611-10.547 0.636-3.52 2.777-7.603 4.836-10.065C52.105 2.756 47.884-1.512 45.399 1.46L45.399 1.46z" data-fill-palette-color="accent"></path></g></g><g fill="#f61b53" data-fill-palette-color="accent"><g fill="#f61b53" data-fill-palette-color="accent"><path fill="#ffffff" d="M68.31 1.46c-5.315 6.353-9.067 15.971-5.484 24.001 3.122 7 11.552 10.077 10.042 18.829-0.713 4.136-3.417 6.776-5.027 10.389-1.561 3.502 3.608 6.557 5.182 3.028 1.346-3.02 3.511-5.597 4.751-8.759 2.017-5.14 1.634-10.656-0.915-15.5-1.526-2.899-4.317-4.827-6.531-7.134-2.699-2.813-3.276-6.867-2.611-10.547 0.637-3.521 2.777-7.603 4.837-10.065C75.017 2.757 70.795-1.511 68.31 1.46L68.31 1.46z" data-fill-palette-color="accent"></path></g></g></svg></g></svg></g></svg></g></svg></g></svg></g><defs></defs></svg><rect width="395.52" height="131.43912113358152" fill="none" stroke="none" visibility="hidden"></rect></g></svg></g></svg>